<svg width="71" height="63" viewBox="0 0 71 63" fill="none" xmlns="http://www.w3.org/2000/svg">
<rect y="12.5" width="50" height="50" rx="25" fill="#FB4614"/>
<rect x="58.5947" y="5.46875" width="12" height="12" rx="6" fill="#FB4614"/>
<path d="M14.8438 5.46875C14.4115 5.46875 14.0625 5.11971 14.0625 4.6875C14.0625 2.10228 16.1648 0 18.75 0C19.1822 0 19.5312 0.349045 19.5312 0.78125C19.5312 1.21346 19.1822 1.5625 18.75 1.5625C17.0265 1.5625 15.625 2.96402 15.625 4.6875C15.625 5.11971 15.276 5.46875 14.8438 5.46875Z" fill="black"/>
<path d="M53.9062 5.46875C53.474 5.46875 53.125 5.11971 53.125 4.6875C53.125 2.96402 51.7235 1.5625 50 1.5625C48.2765 1.5625 46.875 2.96402 46.875 4.6875C46.875 5.11971 46.526 5.46875 46.0938 5.46875C45.6615 5.46875 45.3125 5.11971 45.3125 4.6875C45.3125 2.10228 47.4148 0 50 0C52.5852 0 54.6875 2.10228 54.6875 4.6875C54.6875 5.11971 54.3385 5.46875 53.9062 5.46875Z" fill="black"/>
<path d="M50 1.5625H18.75C18.3178 1.5625 17.9688 1.21346 17.9688 0.78125C17.9688 0.349045 18.3178 0 18.75 0H50C50.4322 0 50.7812 0.349045 50.7812 0.78125C50.7812 1.21346 50.4322 1.5625 50 1.5625Z" fill="black"/>
<path d="M46.0938 5.46875H14.8438C14.4115 5.46875 14.0625 5.11971 14.0625 4.6875C14.0625 4.25529 14.4115 3.90625 14.8438 3.90625H46.0938C46.526 3.90625 46.875 4.25529 46.875 4.6875C46.875 5.11971 46.526 5.46875 46.0938 5.46875Z" fill="black"/>
<path d="M26.5625 50C23.9773 50 21.875 47.8977 21.875 45.3125C21.875 44.8803 22.224 44.5312 22.6562 44.5312C23.0885 44.5312 23.4375 44.8803 23.4375 45.3125C23.4375 47.036 24.839 48.4375 26.5625 48.4375C26.9947 48.4375 27.3438 48.7865 27.3438 49.2188C27.3438 49.651 26.9947 50 26.5625 50Z" fill="black"/>
<path d="M57.8125 50C55.2273 50 53.125 47.8977 53.125 45.3125C53.125 44.8803 53.474 44.5312 53.9062 44.5312C54.3385 44.5312 54.6875 44.8803 54.6875 45.3125C54.6875 47.036 56.089 48.4375 57.8125 48.4375C59.536 48.4375 60.9375 47.036 60.9375 45.3125C60.9375 44.8803 61.2865 44.5312 61.7188 44.5312C62.151 44.5312 62.5 44.8803 62.5 45.3125C62.5 47.8977 60.3977 50 57.8125 50Z" fill="black"/>
<path d="M57.8135 50H26.5635C26.1317 50 25.7822 49.651 25.7822 49.2188C25.7822 48.7865 26.1317 48.4375 26.5635 48.4375H57.8135C58.2457 48.4375 58.5947 48.7865 58.5947 49.2188C58.5947 49.651 58.2457 50 57.8135 50Z" fill="black"/>
<path d="M53.9062 46.0938C53.474 46.0938 53.125 45.7447 53.125 45.3125V4.6875C53.125 4.25529 53.474 3.90625 53.9062 3.90625C54.3385 3.90625 54.6875 4.25529 54.6875 4.6875V45.3125C54.6875 45.7447 54.3385 46.0938 53.9062 46.0938Z" fill="black"/>
<path d="M22.6562 46.0938C22.224 46.0938 21.875 45.7447 21.875 45.3125V4.6875C21.875 4.25529 22.224 3.90625 22.6562 3.90625C23.0885 3.90625 23.4375 4.25529 23.4375 4.6875V45.3125C23.4375 45.7447 23.0885 46.0938 22.6562 46.0938Z" fill="black"/>
<path d="M61.7188 46.0938H53.9062C53.474 46.0938 53.125 45.7447 53.125 45.3125C53.125 44.8803 53.474 44.5312 53.9062 44.5312H61.7188C62.151 44.5312 62.5 44.8803 62.5 45.3125C62.5 45.7447 62.151 46.0938 61.7188 46.0938Z" fill="black"/>
<path d="M42.9688 15.625C39.954 15.625 37.5 13.171 37.5 10.1562C37.5 9.72404 37.849 9.375 38.2812 9.375C38.7135 9.375 39.0625 9.72404 39.0625 10.1562C39.0625 12.31 40.815 14.0625 42.9688 14.0625C43.401 14.0625 43.75 14.4115 43.75 14.8438C43.75 15.276 43.401 15.625 42.9688 15.625Z" fill="black"/>
<path d="M33.5938 15.625C33.1615 15.625 32.8125 15.276 32.8125 14.8438C32.8125 14.4115 33.1615 14.0625 33.5938 14.0625C35.7475 14.0625 37.5 12.31 37.5 10.1562C37.5 9.72404 37.849 9.375 38.2812 9.375C38.7135 9.375 39.0625 9.72404 39.0625 10.1562C39.0625 13.171 36.6085 15.625 33.5938 15.625Z" fill="black"/>
<path d="M32.0312 15.625C30.7392 15.625 29.6875 14.5733 29.6875 13.2812C29.6875 12.849 30.0365 12.5 30.4688 12.5C30.901 12.5 31.25 12.849 31.25 13.2812C31.25 13.7123 31.6002 14.0625 32.0312 14.0625C32.4635 14.0625 32.8125 14.4115 32.8125 14.8438C32.8125 15.276 32.4635 15.625 32.0312 15.625Z" fill="black"/>
<path d="M33.5938 15.625H32.0312C31.599 15.625 31.25 15.276 31.25 14.8438C31.25 14.4115 31.599 14.0625 32.0312 14.0625H33.5938C34.026 14.0625 34.375 14.4115 34.375 14.8438C34.375 15.276 34.026 15.625 33.5938 15.625Z" fill="black"/>
<path d="M30.4688 24.2188C30.0365 24.2188 29.6875 23.8697 29.6875 23.4375V13.2812C29.6875 12.849 30.0365 12.5 30.4688 12.5C30.901 12.5 31.25 12.849 31.25 13.2812V23.4375C31.25 23.8697 30.901 24.2188 30.4688 24.2188Z" fill="black"/>
<path d="M38.2812 32.032C37.849 32.032 37.5 31.6829 37.5 31.2507C37.5 30.389 38.2008 29.6882 39.0625 29.6882C39.4947 29.6882 39.8438 30.0377 39.8438 30.4695C39.8438 30.9017 39.4947 31.2507 39.0625 31.2507C39.0625 31.6829 38.7135 32.032 38.2812 32.032Z" fill="black"/>
<path d="M38.2812 32.032C37.849 32.032 37.5 31.6829 37.5 31.2507V31.2492C37.0678 31.2492 36.7188 30.9009 36.7188 30.4687C36.7188 30.0377 37.0678 29.6882 37.5 29.6882C38.3617 29.6882 39.0625 30.389 39.0625 31.2507C39.0625 31.6829 38.7135 32.032 38.2812 32.032Z" fill="black"/>
<path d="M37.5 31.25C33.1921 31.25 29.6875 27.7454 29.6875 23.4375C29.6875 23.0053 30.0365 22.6562 30.4688 22.6562C30.901 22.6562 31.25 23.0053 31.25 23.4375C31.25 26.8837 34.0538 29.6875 37.5 29.6875C37.9322 29.6875 38.2812 30.0365 38.2812 30.4688C38.2812 30.901 37.9322 31.25 37.5 31.25Z" fill="black"/>
<path d="M44.5312 15.625C44.099 15.625 43.75 15.276 43.75 14.8438C43.75 14.4115 44.099 14.0625 44.5312 14.0625C44.9623 14.0625 45.3125 13.7123 45.3125 13.2812C45.3125 12.849 45.6615 12.5 46.0938 12.5C46.526 12.5 46.875 12.849 46.875 13.2812C46.875 14.5733 45.8233 15.625 44.5312 15.625Z" fill="black"/>
<path d="M44.5312 15.625H42.9688C42.5365 15.625 42.1875 15.276 42.1875 14.8438C42.1875 14.4115 42.5365 14.0625 42.9688 14.0625H44.5312C44.9635 14.0625 45.3125 14.4115 45.3125 14.8438C45.3125 15.276 44.9635 15.625 44.5312 15.625Z" fill="black"/>
<path d="M46.0938 24.2188C45.6615 24.2188 45.3125 23.8697 45.3125 23.4375V13.2812C45.3125 12.849 45.6615 12.5 46.0938 12.5C46.526 12.5 46.875 12.849 46.875 13.2812V23.4375C46.875 23.8697 46.526 24.2188 46.0938 24.2188Z" fill="black"/>
<path d="M39.0625 31.25C38.6303 31.25 38.2812 30.901 38.2812 30.4688C38.2812 30.0365 38.6303 29.6875 39.0625 29.6875C42.5087 29.6875 45.3125 26.8837 45.3125 23.4375C45.3125 23.0053 45.6615 22.6562 46.0938 22.6562C46.526 22.6562 46.875 23.0053 46.875 23.4375C46.875 27.7454 43.3704 31.25 39.0625 31.25Z" fill="black"/>
<path d="M38.2812 25.7812C37.849 25.7812 37.5 25.4322 37.5 25V18.75C37.5 18.3178 37.849 17.9688 38.2812 17.9688C38.7135 17.9688 39.0625 18.3178 39.0625 18.75V25C39.0625 25.4322 38.7135 25.7812 38.2812 25.7812Z" fill="black"/>
<path d="M47.6562 36.7188H28.9062C28.474 36.7188 28.125 36.3697 28.125 35.9375C28.125 35.5053 28.474 35.1562 28.9062 35.1562H47.6562C48.0885 35.1562 48.4375 35.5053 48.4375 35.9375C48.4375 36.3697 48.0885 36.7188 47.6562 36.7188Z" fill="black"/>
<path d="M47.6562 39.8438H28.9062C28.474 39.8438 28.125 39.4947 28.125 39.0625C28.125 38.6303 28.474 38.2812 28.9062 38.2812H47.6562C48.0885 38.2812 48.4375 38.6303 48.4375 39.0625C48.4375 39.4947 48.0885 39.8438 47.6562 39.8438Z" fill="black"/>
<path d="M42.188 42.9688H34.374C33.9418 42.9688 33.5928 42.6197 33.5928 42.1875C33.5928 41.7553 33.9418 41.4062 34.374 41.4062H42.188C42.6203 41.4062 42.9693 41.7553 42.9693 42.1875C42.9693 42.6197 42.6203 42.9688 42.188 42.9688Z" fill="black"/>
</svg>
