<svg width="73" height="61" viewBox="0 0 73 61" fill="none" xmlns="http://www.w3.org/2000/svg">
<rect x="55.5835" y="6.61462" width="12" height="12" rx="6" fill="#FB4614"/>
<rect x="60.1489" y="25.2812" width="12" height="12" rx="6" fill="#FB4614"/>
<rect x="57.3101" y="47.9479" width="12" height="12" rx="6" fill="#FB4614"/>
<rect x="0.833496" y="10.2812" width="50" height="50" rx="25" fill="#FB4614"/>
<g clip-path="url(#clip0)">
<path d="M28.3335 46.9479H29.1668V47.7812C29.1668 49.1981 30.25 50.2812 31.6668 50.2812H61.6668C63.0837 50.2812 64.1668 49.1981 64.1668 47.7812V4.44792C64.1668 3.03109 63.0837 1.94792 61.6668 1.94792H59.1668V3.61458H61.6668C62.1669 3.61458 62.5002 3.94784 62.5002 4.44792V47.7812C62.5002 48.2813 62.1669 48.6146 61.6668 48.6146H31.6668C31.1667 48.6146 30.8335 48.2813 30.8335 47.7812V46.9479H58.3335C59.7503 46.9479 60.8335 45.8647 60.8335 44.4479V7.448L53.6668 0.28125H28.3335C26.9167 0.28125 25.8335 1.36442 25.8335 2.78125V44.4479C25.8335 45.8647 26.9167 46.9479 28.3335 46.9479V46.9479ZM54.1668 3.1145L58.0003 6.94792H55.0002C54.5001 6.94792 54.1668 6.61466 54.1668 6.11458V3.1145ZM27.5002 2.78125C27.5002 2.28117 27.8334 1.94792 28.3335 1.94792H52.5002V6.11458C52.5002 7.53141 53.5833 8.61458 55.0002 8.61458H59.1668V44.4479C59.1668 44.948 58.8336 45.2812 58.3335 45.2812H28.3335C27.8334 45.2812 27.5002 44.948 27.5002 44.4479V2.78125Z" fill="black"/>
<path d="M43.3335 26.9479H50.0002V28.6145H43.3335V26.9479Z" fill="black"/>
<path d="M30 26.9479H40.8333V28.6145H30V26.9479Z" fill="black"/>
<path d="M43.3335 31.1146H50.0002V32.7813H43.3335V31.1146Z" fill="black"/>
<path d="M43.3335 35.2812H50.0002V36.9479H43.3335V35.2812Z" fill="black"/>
<path d="M30 31.1146H40.8333V32.7813H30V31.1146Z" fill="black"/>
<path d="M30 35.2812H40.8333V36.9479H30V35.2812Z" fill="black"/>
<path d="M30 39.4479H40.8333V41.1145H30V39.4479Z" fill="black"/>
<path d="M43.3335 39.4479H50.0002V41.1145H43.3335V39.4479Z" fill="black"/>
<path d="M52.5 26.9479H56.6667V28.6145H52.5V26.9479Z" fill="black"/>
<path d="M52.5 31.1146H56.6667V32.7813H52.5V31.1146Z" fill="black"/>
<path d="M52.5 35.2812H56.6667V36.9479H52.5V35.2812Z" fill="black"/>
<path d="M52.5 39.4479H56.6667V41.1145H52.5V39.4479Z" fill="black"/>
<path d="M39.3333 16.1145H47.25L48.9167 10.2812H49.9998V8.61454H47.9165L44.5832 4.44788H42.0832L38.7498 8.61454H36.6665V10.2812H37.6667L39.3333 16.1145ZM46 14.4479H40.5833L39.4163 10.2812H47.1666L46 14.4479ZM42.9165 6.11454H43.7498L45.7498 8.61454H40.9166L42.9165 6.11454Z" fill="black"/>
<path d="M30 22.7812H56.6667V24.4479H30V22.7812Z" fill="black"/>
<path d="M38.3335 18.6146H48.3335V20.2813H38.3335V18.6146Z" fill="black"/>
</g>
<defs>
<clipPath id="clip0">
<rect width="50" height="50" fill="white" transform="translate(20 0.28125)"/>
</clipPath>
</defs>
</svg>
