<svg width="76" height="60" viewBox="0 0 76 60" fill="none" xmlns="http://www.w3.org/2000/svg">
<rect x="0.527344" y="9.23889" width="50" height="50" rx="25" fill="#FB4614"/>
<rect x="58" y="5.5" width="12" height="12" rx="6" fill="#FB4614"/>
<rect x="64" y="25.2812" width="12" height="12" rx="6" fill="#FB4614"/>
<g clip-path="url(#clip0)">
<path d="M36.627 20.7906C36.4233 20.2859 35.8488 20.0417 35.3445 20.2455C34.8398 20.4488 34.5957 21.0229 34.7994 21.5276L34.8223 21.5844C34.9772 21.9682 35.3464 22.2013 35.7363 22.2013C35.8591 22.2013 35.9839 22.1784 36.1044 22.1295C36.6091 21.9258 36.8533 21.3517 36.6496 20.847L36.627 20.7906Z" fill="black"/>
<path d="M41.8053 21.5859C41.9605 21.9689 42.3294 22.2013 42.7185 22.2013C42.8417 22.2013 42.9668 22.178 43.0881 22.1292C43.5924 21.9247 43.8358 21.3502 43.6313 20.8459L43.6085 20.7891C43.4044 20.2847 42.8299 20.0418 42.3256 20.2458C41.8213 20.4503 41.5779 21.0248 41.7824 21.5291L41.8053 21.5859Z" fill="black"/>
<path d="M54.6159 20.1099C54.6159 18.1167 53.5058 16.378 51.872 15.4785V12.762C51.872 5.68881 46.1175 -0.0656738 39.0443 -0.0656738C31.9711 -0.0656738 26.2166 5.68881 26.2166 12.762V15.4785C24.5827 16.378 23.4727 18.1164 23.4727 20.1099C23.4727 23.0232 25.8427 25.3933 28.756 25.3933H29.1241C29.6155 27.9846 31.1593 30.2078 33.2932 31.5994C33.3058 31.6391 33.3207 31.678 33.3386 31.7165L31.1261 33.9287C29.197 35.8582 29.015 38.929 30.7031 41.0725L36.5571 48.5054C37.2724 49.4137 38.3454 49.9344 39.5013 49.9344C40.6571 49.9344 41.7302 49.4137 42.4455 48.5054L48.2992 41.0725C49.9875 38.929 49.8056 35.8582 47.8765 33.9287L45.3531 31.4056L45.4164 31.2973C45.4568 31.2283 45.4866 31.1565 45.5087 31.0833C45.7021 30.9299 45.889 30.7693 46.0702 30.6015L46.9106 30.8811C47.3069 31.0123 47.7117 31.0772 48.1122 31.0772C48.8889 31.0772 49.6511 30.8338 50.3068 30.3604C51.3013 29.6429 51.872 28.5278 51.872 27.3018V24.7413C53.5058 23.8422 54.6159 22.1035 54.6159 20.1099ZM28.1873 12.762C28.1873 6.77524 33.0579 1.905 39.0443 1.905C45.0307 1.905 49.9013 6.77524 49.9013 12.762V14.8578C49.7144 14.8376 49.5248 14.8266 49.3326 14.8266H48.9522C48.945 14.7846 48.937 14.7419 48.9274 14.6988C48.5158 12.78 47.4904 11.0973 46.0752 9.82013C44.3746 8.24199 42.0983 7.27534 39.6009 7.27534H38.4839C36.0654 7.27534 33.8548 8.18172 32.1729 9.67212C30.6329 11.0031 29.5388 12.799 29.1329 14.8266H28.756C28.5638 14.8266 28.3742 14.8376 28.1873 14.8578V12.762ZM33.4779 11.1488C34.8527 9.96776 36.6746 9.24564 38.6724 9.24564H39.4162C41.3518 9.24564 43.155 9.93457 44.5329 11.0847C45.757 12.1421 46.6394 13.5833 46.9896 15.2206C46.8732 15.2568 46.6508 15.3026 46.2243 15.3392C46.1587 15.345 46.1278 15.3389 46.1248 15.3381C43.0753 14.6537 40.5458 14.5919 36.6384 16.2983C35.7816 16.6725 34.5902 16.9517 32.2522 16.1827C31.9466 16.0824 31.656 16.0484 31.3931 16.0484C31.239 16.0484 31.0948 16.0606 30.9628 16.0774C31.1501 14.1224 32.0851 12.3832 33.4779 11.1488ZM25.443 20.1099C25.443 18.2834 26.9292 16.7972 28.756 16.7972H28.9571V16.8022V23.4226H28.756C26.9292 23.423 25.443 21.9368 25.443 20.1099ZM30.9312 23.7625V18.0809C31.1944 18.0279 31.4229 17.9844 31.6365 18.0546C32.8263 18.4459 33.8742 18.6413 34.8382 18.6413C35.7614 18.6413 36.6075 18.462 37.4272 18.1041C41.2072 16.4528 43.3217 16.7286 45.6933 17.2607C45.9115 17.3095 46.1473 17.3237 46.3929 17.3023C46.6432 17.2809 46.9026 17.2531 47.157 17.2046V23.6145C47.157 25.399 46.5341 27.0401 45.4957 28.3344L42.1022 27.2068C41.0325 26.8513 39.919 26.6712 38.7921 26.6712C38.2482 26.6712 37.8068 27.1122 37.8068 27.6562C37.8068 28.2005 38.2482 28.6415 38.7921 28.6415C39.7073 28.6415 40.6121 28.788 41.4807 29.0768L43.8455 29.8626C42.6347 30.6877 41.1733 31.171 39.6005 31.171H38.4839C34.3671 31.1714 31.0105 27.861 30.9312 23.7625V23.7625ZM42.2826 32.7568L40.2135 36.3007C39.9797 36.7008 39.5955 36.7519 39.441 36.7554C39.2877 36.7584 38.9009 36.7249 38.6495 36.335L36.4484 32.9224C37.1045 33.0654 37.7854 33.1417 38.4839 33.1417H39.6009C40.5316 33.1417 41.4315 33.0071 42.2826 32.7568ZM46.483 35.3226C47.7067 36.546 47.8219 38.4937 46.7511 39.8533L40.8975 47.2863C40.5583 47.7169 40.0495 47.9637 39.5013 47.9637C38.9535 47.9637 38.4446 47.7169 38.1055 47.2863L32.2514 39.8533C31.1807 38.4937 31.2962 36.546 32.5196 35.3226L34.4239 33.4183L36.9935 37.4031C37.5299 38.2351 38.4328 38.7261 39.4189 38.7261C39.441 38.7261 39.4628 38.7261 39.4849 38.7253C40.4965 38.7028 41.4048 38.168 41.9152 37.2944L44.3261 33.1654L46.483 35.3226ZM49.9013 27.3018C49.9013 27.8873 49.629 28.4199 49.154 28.7624C48.6791 29.105 48.0882 29.1958 47.532 29.0108L47.4637 28.9883C48.1927 27.9243 48.7119 26.7063 48.9606 25.3933H49.3329C49.5248 25.3933 49.7144 25.3826 49.9013 25.3624V27.3018ZM49.3326 23.423H49.1277V16.7972H49.3326C51.1594 16.7972 52.6456 18.2834 52.6456 20.1099C52.6456 21.9368 51.1594 23.423 49.3326 23.423Z" fill="black"/>
</g>
<defs>
<clipPath id="clip0">
<rect width="50" height="50" fill="white" transform="translate(14 0.0319824)"/>
</clipPath>
</defs>
</svg>
