<svg width="71" height="63" fill="none" xmlns="http://www.w3.org/2000/svg"><rect y="12.5" width="50" height="50" rx="25" fill="#FB4614"/><rect x="58.595" y="5.469" width="12" height="12" rx="6" fill="#FB4614"/><path d="M14.844 5.469a.78.78 0 01-.781-.782A4.692 4.692 0 0118.75 0a.78.78 0 110 1.563 3.128 3.128 0 00-3.125 3.125.78.78 0 01-.781.78zm39.062 0a.78.78 0 01-.781-.782A3.128 3.128 0 0050 1.563a3.128 3.128 0 00-3.125 3.125.78.78 0 11-1.563 0A4.692 4.692 0 0150 0a4.692 4.692 0 014.688 4.688.78.78 0 01-.782.78z" fill="#000"/><path d="M50 1.563H18.75a.78.78 0 110-1.563H50a.78.78 0 110 1.563zm-3.906 3.906h-31.25a.78.78 0 110-1.563h31.25a.78.78 0 110 1.563zM26.563 50a4.692 4.692 0 01-4.688-4.688.78.78 0 111.563 0 3.128 3.128 0 003.125 3.126.78.78 0 110 1.562zm31.25 0a4.692 4.692 0 01-4.688-4.688.78.78 0 111.563 0 3.128 3.128 0 003.124 3.126 3.128 3.128 0 003.126-3.126.78.78 0 111.562 0A4.692 4.692 0 0157.812 50z" fill="#000"/><path d="M57.813 50h-31.25a.78.78 0 110-1.563h31.25a.78.78 0 110 1.563zm-3.907-3.906a.78.78 0 01-.781-.782V4.688a.78.78 0 111.563 0v40.624a.78.78 0 01-.782.782zm-31.25 0a.78.78 0 01-.781-.782V4.688a.78.78 0 111.563 0v40.624a.78.78 0 01-.782.782z" fill="#000"/><path d="M61.719 46.094h-7.813a.78.78 0 110-1.563h7.813a.78.78 0 110 1.563zm-18.75-30.469a5.476 5.476 0 01-5.469-5.469.78.78 0 111.563 0 3.91 3.91 0 003.906 3.906.78.78 0 110 1.563z" fill="#000"/><path d="M33.594 15.625a.78.78 0 110-1.563 3.91 3.91 0 003.906-3.906.78.78 0 111.563 0 5.476 5.476 0 01-5.47 5.469z" fill="#000"/><path d="M32.031 15.625a2.347 2.347 0 01-2.343-2.344.78.78 0 111.562 0c0 .431.35.781.781.781a.78.78 0 110 1.563z" fill="#000"/><path d="M33.594 15.625H32.03a.78.78 0 110-1.563h1.563a.78.78 0 110 1.563z" fill="#000"/><path d="M30.469 24.219a.78.78 0 01-.782-.782V13.281a.78.78 0 111.563 0v10.156a.78.78 0 01-.781.782zm7.812 7.813a.78.78 0 01-.781-.781c0-.862.7-1.563 1.563-1.563a.78.78 0 110 1.563.78.78 0 01-.782.781z" fill="#000"/><path d="M38.281 32.032a.78.78 0 01-.781-.781v-.002a.78.78 0 110-1.56c.862 0 1.563.7 1.563 1.562a.78.78 0 01-.782.781z" fill="#000"/><path d="M37.5 31.25c-4.308 0-7.813-3.505-7.813-7.813a.78.78 0 111.563 0 6.257 6.257 0 006.25 6.25.78.78 0 110 1.563zm7.031-15.625a.78.78 0 110-1.563c.431 0 .782-.35.782-.78a.78.78 0 111.562 0 2.347 2.347 0 01-2.344 2.343z" fill="#000"/><path d="M44.531 15.625H42.97a.78.78 0 110-1.563h1.562a.78.78 0 110 1.563z" fill="#000"/><path d="M46.094 24.219a.78.78 0 01-.782-.782V13.281a.78.78 0 111.563 0v10.156a.78.78 0 01-.781.782z" fill="#000"/><path d="M39.063 31.25a.78.78 0 110-1.563 6.257 6.257 0 006.25-6.25.78.78 0 111.562 0c0 4.308-3.505 7.813-7.813 7.813zm-.782-5.469A.78.78 0 0137.5 25v-6.25a.78.78 0 111.563 0V25a.78.78 0 01-.782.781zm9.375 10.938h-18.75a.78.78 0 110-1.563h18.75a.78.78 0 110 1.563zm0 3.125h-18.75a.78.78 0 110-1.563h18.75a.78.78 0 110 1.563zm-5.468 3.125h-7.814a.78.78 0 110-1.563h7.814a.78.78 0 110 1.563z" fill="#000"/></svg>