<svg width="25" height="30" version="1.1" id="Capa_1" xmlns="http://www.w3.org/2000/svg" fill="#fff" x="0" y="0" viewBox="0 0 427.1 427.1" xml:space="preserve"><path d="M93.55 156.5c-31.5 0-57 25.5-57 57s25.5 57 57 57 57-25.5 57-57c-.1-31.4-25.6-56.9-57-57zm0 94c-20.4 0-37-16.5-37-37 0-20.4 16.5-37 37-37 20.4 0 37 16.5 37 37-.1 20.4-16.6 36.9-37 37zm287-78h-203.5c-5.5 0-10 4.5-10 10s4.5 10 10 10h203.5c5.5 0 10-4.5 10-10s-4.5-10-10-10zm-93.9 62h-109.6c-5.5 0-10 4.5-10 10s4.4 10 10 10h109.6c5.5 0 10-4.5 10-10s-4.5-10-10-10zM93.55 0c-31.5 0-57 25.5-57 57s25.5 57 57 57 57-25.5 57-57c-.1-31.5-25.6-57-57-57zm0 93.9c-20.4 0-37-16.5-37-37s16.5-37 37-37c20.4 0 37 16.5 37 37-.1 20.5-16.6 37-37 37zm287-78.4h-203.5c-5.5 0-10 4.5-10 10s4.5 10 10 10h203.5c5.5 0 10-4.5 10-10s-4.5-10-10-10zm-93.9 63h-109.6c-5.5 0-10 4.5-10 10s4.4 10 10 10h109.6c5.5 0 10-4.5 10-10s-4.5-10-10-10zM93.55 313.1c-31.5 0-57 25.5-57 57s25.5 57 57 57 57-25.5 57-57c-.1-31.5-25.6-57-57-57zm0 93.9c-20.4 0-37-16.5-37-37 0-20.4 16.5-37 37-37 20.4 0 37 16.5 37 37-.1 20.5-16.6 37-37 37zm287-78.5h-203.5c-5.5 0-10 4.5-10 10s4.5 10 10 10h203.5c5.5 0 10-4.5 10-10s-4.5-10-10-10zm-93.9 63h-109.6c-5.5 0-10 4.5-10 10s4.5 10 10 10h109.6c5.5 0 10-4.5 10-10s-4.5-10-10-10z"/></svg>