<svg width="73" height="61" fill="none" xmlns="http://www.w3.org/2000/svg"><rect x="55.584" y="6.615" width="12" height="12" rx="6" fill="#FB4614"/><rect x="60.149" y="25.281" width="12" height="12" rx="6" fill="#FB4614"/><rect x="57.31" y="47.948" width="12" height="12" rx="6" fill="#FB4614"/><rect x=".833" y="10.281" width="50" height="50" rx="25" fill="#FB4614"/><g clip-path="url(#clip0)" fill="#000"><path d="M28.334 46.948h.833v.833c0 1.417 1.083 2.5 2.5 2.5h30c1.417 0 2.5-1.083 2.5-2.5V4.448c0-1.417-1.083-2.5-2.5-2.5h-2.5v1.667h2.5c.5 0 .833.333.833.833V47.78c0 .5-.333.834-.833.834h-30c-.5 0-.834-.334-.834-.834v-.833h27.5c1.417 0 2.5-1.083 2.5-2.5v-37L53.668.281H28.333c-1.416 0-2.5 1.083-2.5 2.5v41.667c0 1.417 1.084 2.5 2.5 2.5zM54.166 3.114L58 6.948h-3c-.5 0-.833-.333-.833-.833v-3zM27.5 2.781c0-.5.333-.833.834-.833H52.5v4.167c0 1.416 1.083 2.5 2.5 2.5h4.167v35.833c0 .5-.333.833-.834.833h-30c-.5 0-.833-.333-.833-.833V2.78z"/><path d="M43.334 26.948H50v1.666h-6.666v-1.666zm-13.334 0h10.833v1.666H30v-1.666zm13.334 4.167H50v1.666h-6.666v-1.666zm0 4.166H50v1.667h-6.666V35.28zM30 31.115h10.833v1.666H30v-1.666zm0 4.166h10.833v1.667H30V35.28zm0 4.167h10.833v1.666H30v-1.666zm13.334 0H50v1.666h-6.666v-1.666zm9.166-12.5h4.167v1.666H52.5v-1.666zm0 4.167h4.167v1.666H52.5v-1.666zm0 4.166h4.167v1.667H52.5V35.28zm0 4.167h4.167v1.666H52.5v-1.666zM39.333 16.114h7.917l1.667-5.833H50V8.615h-2.084l-3.333-4.167h-2.5L38.75 8.615h-2.084v1.666h1l1.667 5.833zM46 14.448h-5.417l-1.167-4.167h7.75L46 14.448zm-3.084-8.333h.834l2 2.5h-4.833l2-2.5zM30 22.781h26.667v1.667H30V22.78zm8.334-4.166h10v1.666h-10v-1.666z"/></g><defs><clipPath id="clip0"><path fill="#fff" transform="translate(20 .281)" d="M0 0h50v50H0z"/></clipPath></defs></svg>