<svg width="76" height="60" fill="none" xmlns="http://www.w3.org/2000/svg"><rect x=".527" y="9.239" width="50" height="50" rx="25" fill="#FB4614"/><rect x="58" y="5.5" width="12" height="12" rx="6" fill="#FB4614"/><rect x="64" y="25.281" width="12" height="12" rx="6" fill="#FB4614"/><g clip-path="url(#clip0)" fill="#000"><path d="M36.627 20.79a.985.985 0 00-1.828.738l.023.056a.986.986 0 101.828-.737l-.023-.056zm5.178.796a.986.986 0 101.826-.74l-.023-.057a.985.985 0 10-1.826.74l.023.057z"/><path d="M54.616 20.11a5.288 5.288 0 00-2.744-4.631v-2.717c0-7.073-5.755-12.828-12.828-12.828-7.073 0-12.827 5.755-12.827 12.828v2.716a5.287 5.287 0 00-2.744 4.632 5.29 5.29 0 005.283 5.283h.368a9.548 9.548 0 004.17 6.206.98.98 0 00.045.117l-2.213 2.213a5.39 5.39 0 00-.423 7.143l5.854 7.433a3.726 3.726 0 002.944 1.43c1.156 0 2.23-.521 2.945-1.43l5.853-7.433a5.39 5.39 0 00-.422-7.143l-2.524-2.523.063-.109c.04-.069.07-.14.093-.214.193-.153.38-.314.561-.481l.84.28a3.735 3.735 0 003.396-.52 3.732 3.732 0 001.566-3.06v-2.56a5.287 5.287 0 002.744-4.632zm-26.429-7.348c0-5.987 4.87-10.857 10.857-10.857 5.987 0 10.857 4.87 10.857 10.857v2.096a5.289 5.289 0 00-.568-.031h-.38a2.632 2.632 0 00-.026-.128c-.411-1.919-1.437-3.602-2.852-4.879a9.491 9.491 0 00-6.474-2.545h-1.117c-2.419 0-4.63.907-6.311 2.397-1.54 1.331-2.634 3.127-3.04 5.155h-.377c-.192 0-.382.01-.569.03v-2.095zm5.29-1.613a7.953 7.953 0 015.195-1.903h.744a7.99 7.99 0 015.117 1.839 7.56 7.56 0 012.457 4.136c-.117.036-.34.082-.766.118a.354.354 0 01-.1 0c-3.049-.685-5.578-.747-9.486.96-.856.373-2.048.653-4.386-.116a2.735 2.735 0 00-.859-.135c-.154 0-.298.013-.43.03a7.545 7.545 0 012.515-4.93zm-8.034 8.96a3.317 3.317 0 013.313-3.312h.201v6.625h-.201a3.316 3.316 0 01-3.313-3.312zm5.488 3.653v-5.681c.263-.053.492-.097.706-.026 1.19.39 2.237.586 3.201.586.923 0 1.77-.179 2.59-.537 3.78-1.651 5.894-1.375 8.265-.843.218.049.454.063.7.041.25-.021.51-.049.764-.097v6.41a7.518 7.518 0 01-1.661 4.72l-3.394-1.128a10.476 10.476 0 00-3.31-.536.985.985 0 000 1.97c.915 0 1.82.147 2.689.436l2.364.786A7.514 7.514 0 0139.6 31.17h-1.116c-4.117 0-7.474-3.31-7.553-7.409zm11.352 8.995l-2.07 3.544a.905.905 0 01-.772.454.906.906 0 01-.791-.42l-2.202-3.413c.657.143 1.337.22 2.036.22H39.6c.93 0 1.83-.135 2.682-.385zm4.2 2.566a3.418 3.418 0 01.268 4.53l-5.853 7.433c-.34.43-.849.678-1.397.678a1.767 1.767 0 01-1.395-.678l-5.855-7.433a3.419 3.419 0 01.269-4.53l1.904-1.905 2.57 3.985a2.868 2.868 0 002.425 1.323h.066a2.87 2.87 0 002.43-1.432l2.411-4.129 2.157 2.158zm3.418-8.021a1.78 1.78 0 01-.747 1.46 1.781 1.781 0 01-1.622.249l-.068-.023a9.477 9.477 0 001.497-3.595h.372c.192 0 .381-.01.568-.03v1.939zm-.568-3.879h-.205v-6.626h.205a3.317 3.317 0 013.313 3.313 3.317 3.317 0 01-3.313 3.313z"/></g><defs><clipPath id="clip0"><path fill="#fff" transform="translate(14 .032)" d="M0 0h50v50H0z"/></clipPath></defs></svg>